<svg width="13" height="24" viewBox="0 0 13 24" fill="none" xmlns="http://www.w3.org/2000/svg">
<path d="M12.2754 1.40395C12.5878 1.71653 12.7633 2.1404 12.7633 2.58234C12.7632 3.02428 12.5876 3.44811 12.2752 3.76063L4.02425 12.0098L12.2734 20.2607C12.577 20.575 12.7449 20.9961 12.7411 21.4331C12.7372 21.8701 12.5619 22.2881 12.2528 22.597C11.9438 22.906 11.5258 23.0813 11.0888 23.085C10.6518 23.0888 10.2308 22.9207 9.91648 22.6171L0.489118 13.1877C0.176699 12.8752 0.00121755 12.4513 0.00126443 12.0093C0.00131132 11.5674 0.176882 11.1436 0.489368 10.8311L9.91873 1.4037C10.2313 1.09128 10.6552 0.915803 11.0971 0.91585C11.5391 0.915897 11.9629 1.09147 12.2754 1.40395Z" fill="#676663"/>
</svg>
