<svg width="14" height="24" viewBox="0 0 14 24" fill="none" xmlns="http://www.w3.org/2000/svg">
<path d="M1.25145 1.40395C0.939035 1.71653 0.763554 2.1404 0.763601 2.58234C0.763648 3.02428 0.939219 3.44811 1.2517 3.76063L9.5026 12.0098L1.25346 20.2607C0.949891 20.575 0.781945 20.9961 0.785789 21.4331C0.789632 21.8701 0.964959 22.2881 1.27401 22.597C1.58305 22.906 2.00109 23.0813 2.43809 23.085C2.87509 23.0888 3.29607 22.9207 3.61038 22.6171L13.0377 13.1877C13.3502 12.8752 13.5256 12.4513 13.5256 12.0093C13.5255 11.5674 13.35 11.1436 13.0375 10.8311L3.60813 1.4037C3.29555 1.09128 2.87168 0.915803 2.42974 0.91585C1.9878 0.915897 1.56397 1.09147 1.25145 1.40395Z" fill="#676663"/>
</svg>
