<svg width="129" height="129" viewBox="0 0 129 129" fill="none" xmlns="http://www.w3.org/2000/svg">
<path d="M64.4999 128.657C51.8108 128.657 39.4067 124.894 28.8561 117.845C18.3055 110.795 10.0824 100.775 5.22647 89.0519C0.370572 77.3287 -0.899953 64.4288 1.57556 51.9836C4.05108 39.5383 10.1614 28.1066 19.134 19.1341C28.1065 10.1616 39.5382 4.0512 51.9835 1.57568C64.4287 -0.89983 77.3286 0.370694 89.0517 5.22659C100.775 10.0825 110.795 18.3057 117.845 28.8562C124.894 39.4068 128.657 51.8109 128.657 64.5C128.638 81.5098 121.873 97.8174 109.845 109.845C97.8173 121.873 81.5096 128.638 64.4999 128.657ZM64.4999 6.80126C53.0882 6.80126 41.9327 10.1852 32.4442 16.5252C22.9557 22.8653 15.5603 31.8766 11.1932 42.4197C6.82611 52.9627 5.68348 64.564 7.9098 75.7565C10.1361 86.9489 15.6314 97.2299 23.7007 105.299C31.77 113.368 42.051 118.864 53.2434 121.09C64.4359 123.316 76.0372 122.174 86.5802 117.807C97.1233 113.44 106.135 106.044 112.475 96.5557C118.815 87.0672 122.199 75.9117 122.199 64.5C122.182 49.2026 116.097 34.5366 105.28 23.7197C94.4633 12.9028 79.7973 6.81835 64.4999 6.80126Z" fill="url(#paint0_linear_279_2)"/>
<path d="M79.2252 63.0792C80.8103 61.2009 81.8248 58.9081 82.1489 56.4718C82.473 54.0354 82.0931 51.5572 81.0541 49.3298C80.0151 47.1024 78.3604 45.2189 76.2854 43.9016C74.2103 42.5843 71.8017 41.8884 69.3439 41.8959H67.7293V35.2438C67.6957 34.4158 67.3386 33.634 66.7348 33.0665C66.131 32.4989 65.3287 32.1908 64.5002 32.2084C64.0884 32.1937 63.6777 32.2608 63.292 32.4058C62.9062 32.5508 62.5531 32.7707 62.2528 33.0529C61.9526 33.3352 61.7112 33.6741 61.5427 34.0501C61.3742 34.4262 61.2818 34.8319 61.271 35.2438V41.8959H53.1981C51.4852 41.8959 49.8425 42.5763 48.6313 43.7875C47.4202 44.9987 46.7397 46.6414 46.7397 48.3542V80.6459C46.7397 82.3588 47.4202 84.0015 48.6313 85.2126C49.8425 86.4238 51.4852 87.1042 53.1981 87.1042H61.271V93.7563C61.2818 94.1683 61.3742 94.5739 61.5427 94.95C61.7112 95.326 61.9526 95.665 62.2528 95.9472C62.5531 96.2294 62.9062 96.4494 63.292 96.5943C63.6777 96.7393 64.0884 96.8064 64.5002 96.7917C65.3287 96.8093 66.131 96.5012 66.7348 95.9337C67.3386 95.3661 67.6957 94.5843 67.7293 93.7563V87.1042H72.5731C75.9956 87.094 79.2751 85.7299 81.6953 83.3097C84.1154 80.8896 85.4795 77.6101 85.4897 74.1876C85.4773 71.9559 84.8954 69.7643 83.7992 67.8203C82.7029 65.8764 81.1285 64.2445 79.2252 63.0792ZM53.1981 48.3542H69.3439C71.0568 48.3542 72.6995 49.0347 73.9106 50.2458C75.1218 51.457 75.8022 53.0997 75.8022 54.8126C75.8022 56.5254 75.1218 58.1681 73.9106 59.3793C72.6995 60.5905 71.0568 61.2709 69.3439 61.2709H53.1981V48.3542ZM72.5731 80.6459H53.1981V67.7292H72.5731C74.2859 67.7292 75.9286 68.4097 77.1398 69.6208C78.351 70.832 79.0314 72.4747 79.0314 74.1876C79.0314 75.9004 78.351 77.5431 77.1398 78.7543C75.9286 79.9655 74.2859 80.6459 72.5731 80.6459Z" fill="url(#paint1_linear_279_2)"/>
<defs>
<linearGradient id="paint0_linear_279_2" x1="64.4999" y1="0.342896" x2="64.4999" y2="128.657" gradientUnits="userSpaceOnUse">
<stop stop-color="#FEE73E"/>
<stop offset="1" stop-color="white"/>
</linearGradient>
<linearGradient id="paint1_linear_279_2" x1="66.1147" y1="32.2064" x2="66.1147" y2="96.7937" gradientUnits="userSpaceOnUse">
<stop stop-color="#FEE73E"/>
<stop offset="1" stop-color="white"/>
</linearGradient>
</defs>
</svg>
