<svg width="109" height="109" viewBox="0 0 109 109" fill="none" xmlns="http://www.w3.org/2000/svg">
<rect width="109" height="109" rx="12" fill="white" fill-opacity="0.3"/>
<path d="M60.2857 25C51.8746 25 43.8079 28.3187 37.8603 34.2261C31.9127 40.1335 28.5714 48.1457 28.5714 56.5H18L31.7076 70.115L31.9543 70.605L46.1905 56.5H35.619C35.619 42.955 46.6486 32 60.2857 32C73.9229 32 84.9524 42.955 84.9524 56.5C84.9524 70.045 73.9229 81 60.2857 81C53.4848 81 47.3181 78.235 42.8781 73.79L37.8743 78.76C40.8106 81.6936 44.3029 84.0206 48.1495 85.6065C51.9961 87.1924 56.1209 88.0059 60.2857 88C68.6969 88 76.7635 84.6812 82.7111 78.7738C88.6587 72.8664 92 64.8543 92 56.5C92 48.1457 88.6587 40.1335 82.7111 34.2261C76.7635 28.3187 68.6969 25 60.2857 25ZM56.7619 42.5V60L71.7381 68.82L74.4514 64.34L62.0476 57.025V42.5H56.7619Z" fill="url(#paint0_linear_64_347)"/>
<defs>
<linearGradient id="paint0_linear_64_347" x1="55" y1="25" x2="55" y2="88" gradientUnits="userSpaceOnUse">
<stop stop-color="white"/>
<stop offset="1" stop-color="#FFF7BA"/>
</linearGradient>
</defs>
</svg>
