<svg width="109" height="109" viewBox="0 0 109 109" fill="none" xmlns="http://www.w3.org/2000/svg">
<rect width="109" height="109" rx="12" fill="white" fill-opacity="0.3"/>
<path d="M51.033 37.9937C50.6894 37.0172 50.0511 36.1715 49.2064 35.5731C48.3617 34.9747 47.3521 34.6532 46.317 34.6529H42.4411C41.3415 34.656 40.2818 35.0646 39.4647 35.8005C38.6477 36.5363 38.1309 37.5477 38.0132 38.6409C37.8955 39.7342 38.1853 40.8324 38.827 41.7253C39.4686 42.6181 40.4171 43.2429 41.4908 43.48L47.3822 44.7703C48.5877 45.0334 49.6533 45.7328 50.3743 46.7341C51.0953 47.7354 51.4207 48.9679 51.2879 50.1946C51.1551 51.4213 50.5735 52.5556 49.655 53.3794C48.7365 54.2033 47.5458 54.6585 46.3119 54.6575H42.9762C41.9422 54.658 40.9335 54.3379 40.0889 53.7414C39.2444 53.145 38.6054 52.3014 38.2601 51.3268M44.6516 34.6529V29.6518M44.6516 59.6587V54.6575M54.1888 87V60.7439C54.1888 59.086 54.8474 57.4959 56.0198 56.3235C57.1921 55.1511 58.7822 54.4925 60.4402 54.4925C62.0982 54.4925 63.6883 55.1511 64.8607 56.3235C66.033 57.4959 66.6917 59.086 66.6917 60.7439V74.4971H76.694C79.3467 74.4971 81.8909 75.5509 83.7667 77.4267C85.6425 79.3025 86.6963 81.8467 86.6963 84.4994V87" stroke="url(#paint0_linear_41_1093)" stroke-width="4" stroke-linecap="round" stroke-linejoin="round"/>
<path d="M44.6571 67.3205C40.043 67.3199 35.5389 65.9106 31.7472 63.2812C27.9556 60.6518 25.0569 56.9276 23.4389 52.6064C21.8209 48.2852 21.5606 43.573 22.6928 39.0999C23.825 34.6268 26.2958 30.6059 29.7748 27.5749C33.2538 24.5439 37.5752 22.6471 42.1612 22.1382C46.7472 21.6294 51.3793 22.5327 55.4382 24.7273C59.497 26.922 62.7891 30.3034 64.8744 34.4195C66.9597 38.5356 67.7387 43.1902 67.1073 47.761" stroke="url(#paint1_linear_41_1093)" stroke-width="4" stroke-linecap="round"/>
<defs>
<linearGradient id="paint0_linear_41_1093" x1="62.3419" y1="29.6518" x2="62.3419" y2="87" gradientUnits="userSpaceOnUse">
<stop stop-color="white"/>
<stop offset="1" stop-color="#FFF7BA"/>
</linearGradient>
<linearGradient id="paint1_linear_41_1093" x1="44.6602" y1="22" x2="44.6602" y2="67.3205" gradientUnits="userSpaceOnUse">
<stop stop-color="white"/>
<stop offset="1" stop-color="#FFF7BA"/>
</linearGradient>
</defs>
</svg>
