<svg width="109" height="109" viewBox="0 0 109 109" fill="none" xmlns="http://www.w3.org/2000/svg">
<rect width="109" height="109" rx="12" fill="white" fill-opacity="0.3"/>
<path d="M30.8682 32.45C26.764 32.3807 24.7954 33.1871 23.7024 36.0473C23.0409 37.783 23 39.6824 23 41.5409V73.4C23.3402 75.3971 23.9071 76.7233 25.3372 77.81C27.6712 79.574 30.7706 79.8166 33.6527 80.3395C39.9649 81.4829 45.455 83.4201 54.4792 86M54.4792 86C62.8357 83.4139 68.8109 81.6215 74.4112 80.5883C78.8871 79.7598 84.5851 79.2023 85.5931 74.7608C85.8577 73.5921 85.9774 72.1306 85.9553 70.25V45.8879C85.9553 41.1503 86.6735 34.7968 82.3519 32.8595C81.2684 32.3776 79.9045 32.2925 78.0871 32.45M54.4792 86V63.95M54.4761 54.5C58.6514 54.4975 62.6548 52.837 65.6062 49.8836C68.5577 46.9302 70.2157 42.9255 70.2157 38.75C70.2157 30.0497 63.1696 23 54.4761 23M54.4761 54.5C50.3008 54.4975 46.2974 52.837 43.3459 49.8836C40.3944 46.9302 38.7365 42.9255 38.7365 38.75C38.7365 30.0497 45.7826 23 54.4761 23M54.4761 54.5C57.9535 54.5 60.7726 47.444 60.7726 38.75C60.7726 30.0497 57.9535 23 54.4729 23M54.4761 23C50.9987 23 48.1796 30.0497 48.1796 38.75C48.1796 47.444 50.9987 54.5 54.4729 54.5" stroke="url(#paint0_linear_64_386)" stroke-width="4" stroke-linecap="round" stroke-linejoin="round"/>
<defs>
<linearGradient id="paint0_linear_64_386" x1="54.5" y1="23" x2="54.5" y2="86" gradientUnits="userSpaceOnUse">
<stop stop-color="white"/>
<stop offset="1" stop-color="#FFF7BA"/>
</linearGradient>
</defs>
</svg>
