<svg width="109" height="109" viewBox="0 0 109 109" fill="none" xmlns="http://www.w3.org/2000/svg">
<rect width="109" height="109" rx="12" fill="white" fill-opacity="0.3"/>
<path d="M28.9332 63.3226L40.1598 52.096L49.4955 61.4317L59.9136 51.0136L53.9967 45.0967H70.4967V61.5967L64.5798 55.6798L49.4955 70.7641L40.1598 61.4317L31.9956 69.5959C35.7029 75.1757 41.3928 79.1375 47.9123 80.6784C54.4318 82.2193 61.2933 81.2241 67.1063 77.8944C72.9194 74.5647 77.2492 69.1496 79.2184 62.7465C81.1876 56.3433 80.6488 49.4309 77.7113 43.4102C74.7738 37.3894 69.6573 32.7106 63.3985 30.3218C57.1398 27.9329 50.207 28.0128 44.0049 30.5452C37.8029 33.0777 32.7955 37.8732 29.9976 43.96C27.1996 50.0469 26.8203 56.9698 28.9365 63.3259M23.8644 68.4673L23.8314 68.4343L23.8446 68.4211C21.9667 64.1961 20.9975 59.6236 21 55C21 36.7741 35.7741 22 54 22C72.2259 22 87 36.7741 87 55C87 73.2259 72.2259 88 54 88C40.569 88 29.019 79.981 23.8644 68.4673Z" fill="url(#paint0_linear_41_1071)"/>
<defs>
<linearGradient id="paint0_linear_41_1071" x1="54" y1="22" x2="54" y2="88" gradientUnits="userSpaceOnUse">
<stop stop-color="white"/>
<stop offset="1" stop-color="#FFF7BA"/>
</linearGradient>
</defs>
</svg>
