<svg width="109" height="109" viewBox="0 0 109 109" fill="none" xmlns="http://www.w3.org/2000/svg">
<rect width="109" height="109" rx="12" fill="white" fill-opacity="0.3"/>
<path d="M36.125 43.9134V53.1796C36.1355 53.2269 36.209 53.4369 36.608 53.7991C37.1461 54.29 38.0728 54.8517 39.4404 55.3767C42.1573 56.4241 46.0895 57.125 50.5625 57.125C55.0355 57.125 58.9678 56.4241 61.6846 55.3767C63.0522 54.8517 63.9789 54.29 64.5196 53.8018C64.916 53.4369 64.9895 53.2269 65 53.1796V43.9134C64.5309 44.1357 64.0537 44.3406 63.5694 44.5276C60.1122 45.8585 55.5106 46.625 50.5625 46.625C45.6144 46.625 41.0128 45.8585 37.5556 44.5276C37.0713 44.3406 36.5941 44.1357 36.125 43.9134ZM70.25 37.4375V54.5578C72.6443 54.777 74.946 55.5907 76.9461 56.925C78.9462 58.2593 80.5814 60.0721 81.7033 62.1987C82.8251 64.3252 83.3981 66.6983 83.3703 69.1025C83.3424 71.5067 82.7145 73.8659 81.5437 75.9658C80.3728 78.0658 78.696 79.8402 76.6655 81.1278C74.635 82.4154 72.3151 83.1755 69.9163 83.3391C67.5175 83.5028 65.1159 83.0647 62.9293 82.0648C60.7428 81.0648 58.8406 79.5347 57.3954 77.6131C55.2691 77.9439 52.9618 78.125 50.5625 78.125C45.6117 78.125 41.0128 77.3585 37.5556 76.0276C35.8336 75.3661 34.2639 74.513 33.0748 73.4341C31.8856 72.3552 30.875 70.8354 30.875 68.9375V37.4375C30.875 35.537 31.8856 34.0224 33.0748 32.9409C34.2639 31.862 35.8336 31.0089 37.5556 30.3474C41.0128 29.0165 45.6144 28.25 50.5625 28.25C55.5106 28.25 60.1122 29.0165 63.5694 30.3474C65.2887 31.0089 66.8611 31.862 68.0503 32.9409C69.2394 34.0198 70.25 35.5396 70.25 37.4375ZM36.125 37.4375C36.1434 37.4979 36.23 37.7052 36.608 38.0491C37.1461 38.54 38.0728 39.1018 39.4404 39.6267C42.1573 40.6741 46.0895 41.375 50.5625 41.375C55.0355 41.375 58.9678 40.6741 61.6846 39.6267C63.0522 39.1018 63.9789 38.54 64.5196 38.0518C64.8976 37.7052 64.9816 37.5005 64.9974 37.4375C64.9816 37.3771 64.8976 37.1698 64.517 36.8259C63.9789 36.335 63.0522 35.7732 61.6846 35.2482C58.9678 34.2009 55.0355 33.5 50.5625 33.5C46.0895 33.5 42.1573 34.2009 39.4404 35.2482C38.0728 35.7732 37.1461 36.335 36.6054 36.8232C36.2274 37.1698 36.1407 37.3745 36.125 37.4375ZM36.1276 59.6634V68.9296C36.1381 68.9769 36.2116 69.1869 36.6106 69.5491C37.1487 70.04 38.0754 70.6017 39.443 71.1267C42.1599 72.1741 46.0921 72.875 50.5651 72.875C52.106 72.875 53.5891 72.791 54.983 72.6387C54.6625 71.4311 54.5002 70.187 54.5 68.9375C54.5 66.4333 55.1379 64.076 56.2588 62.0233C54.4475 62.2542 52.5339 62.375 50.5625 62.375C45.6117 62.375 41.0128 61.6085 37.5556 60.2776C37.0713 60.0906 36.5967 59.8857 36.1276 59.6634ZM68.9375 59.75C68.591 59.75 68.2497 59.7684 67.9137 59.8051C65.5358 60.0668 63.3538 61.2457 61.8315 63.0912C60.3092 64.9366 59.5668 67.303 59.762 69.6873C59.9572 72.0716 61.0748 74.2857 62.877 75.8589C64.6792 77.4321 67.024 78.2403 69.4128 78.1117C71.8017 77.9831 74.0461 76.9278 75.669 75.1701C77.2919 73.4125 78.1652 71.0912 78.1033 68.6997C78.0414 66.3082 77.0491 64.0352 75.3375 62.3639C73.6258 60.6926 71.3298 59.7549 68.9375 59.75Z" fill="url(#paint0_linear_41_1046)"/>
<defs>
<linearGradient id="paint0_linear_41_1046" x1="57.1231" y1="28.25" x2="57.1231" y2="83.3726" gradientUnits="userSpaceOnUse">
<stop stop-color="white"/>
<stop offset="1" stop-color="#FFF6B7"/>
</linearGradient>
</defs>
</svg>
