<svg width="109" height="109" viewBox="0 0 109 109" fill="none" xmlns="http://www.w3.org/2000/svg">
<rect width="109" height="109" rx="12" fill="white" fill-opacity="0.3"/>
<path d="M81.0182 71.6356L86.6403 75.382C87.1854 75.7456 87.849 75.8866 88.4948 75.776C89.1406 75.6654 89.7194 75.3117 90.1125 74.7875L97.8 64.5375L93.7 61.4625L87.4654 69.7752L81.7972 65.993C81.2437 65.6233 80.5682 65.4834 79.9134 65.603C79.2587 65.7226 78.6762 66.0922 78.2891 66.6336L70.125 78.0649V57.875H65V83.5C65 84.8592 65.54 86.1628 66.5011 87.1239C67.4622 88.085 68.7658 88.625 70.125 88.625H95.75V83.5H72.5414L81.0182 71.6356ZM24 70.6875H59.875V75.8125H24V70.6875ZM24 83.5H59.875V88.625H24V83.5ZM47.0625 57.875V45.0625H49.625C52.3424 45.0591 54.9476 43.9781 56.8691 42.0566C58.7906 40.1351 59.8716 37.5299 59.875 34.8125V27.125H52.1875C49.5636 27.1298 47.0424 28.1458 45.1483 29.9617C43.822 27.5518 41.8734 25.5419 39.5058 24.1415C37.1382 22.7411 34.4383 22.0016 31.6875 22H24V29.6875C24.0047 33.7637 25.6261 37.6717 28.5085 40.554C31.3908 43.4364 35.2988 45.0578 39.375 45.0625H41.9375V57.875H24V63H59.875V57.875H47.0625ZM52.1875 32.25H54.75V34.8125C54.75 36.1717 54.21 37.4753 53.2489 38.4364C52.2878 39.3975 50.9842 39.9375 49.625 39.9375H47.0625V37.375C47.0625 36.0158 47.6025 34.7122 48.5636 33.7511C49.5247 32.79 50.8283 32.25 52.1875 32.25ZM39.375 39.9375C36.6576 39.9341 34.0524 38.8531 32.1309 36.9316C30.2094 35.0101 29.1284 32.4049 29.125 29.6875V27.125H31.6875C34.4049 27.1284 37.0101 28.2094 38.9316 30.1309C40.8531 32.0524 41.9341 34.6576 41.9375 37.375V39.9375H39.375Z" fill="url(#paint0_linear_64_399)"/>
<defs>
<linearGradient id="paint0_linear_64_399" x1="60.9" y1="22" x2="60.9" y2="88.625" gradientUnits="userSpaceOnUse">
<stop stop-color="white"/>
<stop offset="1" stop-color="#FFF7BA"/>
</linearGradient>
</defs>
</svg>
