<svg width="17" height="17" viewBox="0 0 17 17" fill="none" xmlns="http://www.w3.org/2000/svg">
<mask id="mask0_28_3175" style="mask-type:luminance" maskUnits="userSpaceOnUse" x="0" y="0" width="17" height="17">
<path d="M16.6447 0.0553589H0.510498V16.1896H16.6447V0.0553589Z" fill="white"/>
</mask>
<g mask="url(#mask0_28_3175)">
<path d="M7.6062 4.7857C7.15945 4.48786 6.56104 4.80812 6.56104 5.34505V10.8999C6.56104 11.4369 7.15945 11.7571 7.6062 11.4592L11.7723 8.68187C12.1715 8.41572 12.1715 7.82924 11.7723 7.5631L7.6062 4.7857Z" stroke="#FEE73E" stroke-width="1.00839" stroke-linecap="round" stroke-linejoin="round"/>
</g>
<path d="M1.01501 8.12247C1.01501 3.94558 4.40105 0.55954 8.57794 0.55954C12.7548 0.55954 16.1409 3.94558 16.1409 8.12247C16.1409 12.2994 12.7548 15.6854 8.57794 15.6854C4.40105 15.6854 1.01501 12.2994 1.01501 8.12247Z" stroke="#FEE73E" stroke-width="1.00839"/>
</svg>
